<?xml version="1.0" standalone="no"?>
<!DOCTYPE svg PUBLIC "-//W3C//DTD SVG 20010904//EN"
 "http://www.w3.org/TR/2001/REC-SVG-20010904/DTD/svg10.dtd">
<svg version="1.0" xmlns="http://www.w3.org/2000/svg"
 width="596.000000pt" height="596.000000pt" viewBox="0 0 596.000000 596.000000"
 preserveAspectRatio="xMidYMid meet">
<metadata>
Created by potrace 1.14, written by Peter Selinger 2001-2017
</metadata>
<g transform="translate(0.000000,596.000000) scale(0.100000,-0.100000)"
fill="#000000" stroke="none">
<path d="M2758 5675 c-1 -2 -34 -6 -73 -10 -38 -3 -83 -8 -100 -11 -16 -2 -43
-6 -60 -9 -16 -2 -42 -7 -56 -9 -14 -3 -39 -8 -55 -10 -16 -2 -36 -6 -44 -9
-8 -2 -58 -15 -110 -27 -300 -69 -629 -214 -915 -403 -273 -180 -561 -455
-761 -727 -132 -179 -264 -417 -353 -635 -38 -94 -97 -265 -106 -310 -2 -11
-12 -54 -23 -95 -24 -93 -45 -187 -47 -220 -2 -22 -7 -54 -20 -140 -23 -144
-23 -562 0 -680 2 -10 6 -47 10 -81 4 -35 8 -66 10 -69 2 -3 6 -21 9 -40 3
-19 8 -46 11 -60 4 -14 7 -34 9 -45 6 -43 29 -131 37 -140 5 -7 65 -11 156
-10 156 0 158 1 140 45 -8 19 -53 213 -61 260 -31 188 -40 300 -40 485 1 138
8 258 20 345 9 61 44 243 55 285 6 22 13 47 15 55 10 45 46 157 79 245 33 89
145 328 177 380 174 276 259 387 427 556 133 133 211 199 349 298 286 203 601
345 942 425 59 14 78 17 149 31 12 2 42 6 65 9 22 3 57 7 76 10 191 26 504 22
695 -9 232 -38 405 -85 612 -166 40 -16 81 -33 90 -38 10 -5 55 -28 101 -51
128 -64 147 -74 150 -82 2 -5 8 -8 13 -8 17 0 267 -170 315 -215 6 -5 33 -28
60 -50 55 -45 251 -239 303 -300 92 -109 199 -265 301 -435 19 -32 99 -198
125 -260 15 -36 31 -74 36 -85 13 -31 69 -194 68 -200 0 -3 7 -31 16 -63 19
-63 23 -80 31 -132 3 -19 7 -43 10 -52 7 -22 11 -45 18 -98 3 -25 8 -54 10
-65 23 -116 24 -547 2 -660 -2 -11 -7 -42 -10 -70 -10 -74 -34 -188 -61 -293
-14 -52 -25 -95 -25 -96 0 -5 300 0 305 6 17 17 79 326 90 448 22 231 22 483
0 654 -2 17 -7 51 -10 76 -5 40 -16 105 -30 180 -67 349 -223 726 -427 1036
-93 140 -88 133 -201 273 -76 93 -311 330 -378 381 -18 14 -37 30 -43 35 -6 6
-45 36 -86 66 -348 260 -763 446 -1180 529 -110 22 -133 26 -215 36 -27 3 -66
8 -85 11 -40 5 -506 13 -512 8z"/>
<path d="M2758 5245 c-2 -1 -30 -6 -63 -9 -89 -10 -119 -15 -240 -41 -656
-142 -1220 -552 -1566 -1136 -63 -106 -168 -321 -173 -354 -1 -5 -4 -14 -7
-20 -29 -48 -105 -332 -123 -460 -4 -23 -8 -52 -11 -65 -23 -121 -24 -521 -1
-635 2 -11 7 -45 12 -75 4 -30 8 -57 9 -60 1 -3 5 -21 9 -40 29 -136 85 -333
105 -365 3 -5 6 -19 6 -30 0 -20 7 -20 548 -20 302 0 551 2 555 5 4 3 8 14 8
25 8 125 64 228 145 269 44 22 89 25 89 7 0 -9 90 -152 106 -168 7 -7 21 -23
31 -36 10 -12 36 -37 59 -55 38 -31 45 -33 108 -30 37 1 70 6 72 9 2 4 -20 22
-48 40 -124 80 -226 185 -261 271 l-15 36 86 31 c92 32 158 51 207 58 137 20
259 120 300 245 10 29 19 54 20 56 1 1 24 -7 51 -19 67 -29 131 -47 184 -52
64 -6 179 16 246 47 32 15 60 23 64 19 4 -5 12 -28 19 -53 32 -111 154 -220
262 -234 79 -10 287 -75 316 -98 31 -25 -98 -195 -198 -260 -27 -17 -49 -35
-49 -40 0 -4 -5 -8 -11 -8 -17 0 -64 -40 -48 -41 123 -8 130 -7 179 32 48 38
111 118 167 214 26 43 34 50 58 48 37 -3 85 -26 112 -55 20 -22 65 -101 70
-123 1 -5 5 -23 9 -40 6 -30 10 -57 13 -85 1 -13 66 -15 529 -14 290 1 533 2
540 2 9 2 12 12 8 34 -3 20 8 73 29 144 33 110 60 216 69 272 2 15 8 47 11 72
4 25 9 53 11 62 22 122 22 488 0 618 -3 14 -7 43 -11 65 -35 241 -120 507
-232 723 -202 388 -482 699 -843 934 -170 111 -441 241 -575 274 -5 2 -50 14
-100 29 -84 23 -241 56 -345 70 -46 7 -496 16 -502 10z m392 -99 c47 -3 96 -8
110 -11 14 -3 45 -7 69 -10 39 -5 146 -26 206 -41 11 -3 30 -7 41 -9 41 -9
253 -85 321 -115 344 -154 642 -381 871 -664 144 -179 253 -360 337 -561 55
-131 110 -301 130 -402 40 -204 48 -285 48 -498 1 -182 -4 -247 -29 -390 -25
-148 -69 -315 -82 -315 -4 0 -20 13 -37 28 -103 96 -303 187 -495 227 -41 8
-99 27 -129 42 -56 27 -141 97 -141 116 0 6 -6 18 -13 26 -8 9 -22 36 -31 60
l-17 44 39 36 c54 49 134 157 167 225 20 41 38 62 66 78 50 28 103 106 125
183 21 75 21 207 0 256 -22 52 -82 298 -91 377 -2 13 -27 61 -57 108 -131 209
-301 321 -514 340 -93 8 -85 8 -154 0 -79 -10 -207 -45 -264 -72 -28 -13 -50
-24 -51 -24 -1 0 -29 26 -62 58 -66 64 -152 124 -210 148 -21 9 -51 22 -68 29
-28 12 -86 27 -165 41 -51 9 -140 6 -196 -7 -27 -6 -56 -12 -65 -14 -40 -8
-159 -61 -207 -92 -56 -36 -63 -41 -112 -86 l-30 -28 -44 30 c-43 30 -133 70
-171 76 -11 2 -33 6 -50 10 -68 13 -174 12 -211 -2 -89 -33 -273 -92 -333
-107 -192 -49 -288 -173 -326 -426 -8 -52 -15 -124 -15 -160 -1 -41 -11 -100
-29 -160 -23 -78 -28 -112 -27 -190 2 -83 6 -103 31 -152 26 -53 85 -118 130
-144 10 -5 38 -49 63 -96 24 -47 73 -123 108 -168 55 -68 64 -86 60 -111 -12
-76 -101 -155 -259 -228 -57 -26 -283 -108 -321 -116 -111 -23 -238 -98 -279
-164 -15 -25 -15 -25 -32 30 -29 95 -43 152 -60 244 -10 50 -19 99 -21 110
-25 126 -25 466 1 664 40 299 181 669 356 936 229 347 550 629 924 813 164 81
413 167 540 187 11 2 29 6 40 8 11 3 45 8 75 12 30 4 66 10 80 11 14 2 66 7
115 10 50 3 91 7 92 8 4 3 160 -2 253 -8z m-284 -1147 c-4 -23 -15 -65 -26
-95 l-18 -54 174 0 c96 0 174 1 174 3 0 1 -9 25 -19 52 -10 28 -21 69 -25 93
-5 39 -4 42 13 33 51 -28 120 -138 121 -193 0 -33 3 -35 67 -42 54 -6 137 -39
151 -60 4 -6 7 -57 8 -114 1 -102 8 -133 20 -96 18 56 30 79 51 100 28 28 49
22 81 -23 53 -77 58 -182 16 -323 -33 -112 -87 -182 -140 -182 -19 0 -28 -10
-43 -44 -22 -48 -75 -130 -102 -156 -9 -9 -19 -21 -20 -26 -9 -20 -118 -99
-169 -122 -69 -30 -222 -38 -311 -15 -135 35 -259 147 -340 307 -16 32 -33 57
-38 54 -4 -3 -26 4 -49 15 -34 17 -48 33 -72 82 -41 86 -68 196 -63 268 3 66
34 147 64 175 19 17 22 17 47 2 25 -16 75 -95 67 -108 -2 -3 0 -12 6 -20 5
-10 9 27 9 102 0 106 2 119 21 137 26 24 127 52 192 52 12 0 17 9 17 32 1 48
33 111 84 162 25 25 48 45 52 45 4 0 4 -18 0 -41z m-558 -54 c-6 -19 -15 -32
-20 -29 -7 5 17 64 26 64 2 0 -1 -16 -6 -35z m-468 -19 c8 -4 25 -22 38 -40
71 -104 193 -191 258 -182 49 6 84 18 84 28 0 5 8 8 17 6 16 -3 18 -19 19
-138 2 -162 7 -200 46 -353 52 -203 38 -258 -72 -276 l-34 -6 24 -23 c44 -41
113 -67 173 -64 52 2 -17 -69 -138 -142 -71 -43 -125 -66 -155 -66 -13 0 -16
8 -14 40 1 22 -2 42 -7 45 -11 8 -119 9 -126 2 -3 -3 -6 -21 -7 -39 -2 -30 -5
-33 -32 -30 -42 4 -142 41 -194 71 -72 41 -151 128 -197 216 -26 48 -56 90
-76 104 -132 97 -166 272 -79 408 17 28 26 23 63 -36 38 -60 64 -151 68 -238
2 -58 81 -116 81 -60 0 13 -7 48 -16 78 -9 30 -15 54 -14 54 1 0 -3 12 -9 27
-18 48 -25 119 -25 248 -1 101 4 139 21 195 25 78 77 148 127 172 30 13 140
13 176 -1z m2520 -26 c21 -11 68 -86 75 -119 3 -12 7 -31 10 -43 3 -13 8 -39
11 -58 3 -19 7 -46 10 -60 9 -54 4 -208 -9 -265 -8 -33 -24 -79 -35 -101 -23
-45 -20 -59 9 -43 32 16 62 96 76 199 3 25 6 51 7 57 4 29 46 71 64 66 31 -8
63 -89 67 -170 6 -127 -41 -231 -131 -290 -22 -14 -94 -113 -94 -129 0 -2 -5
-10 -10 -17 -6 -7 -29 -37 -53 -67 -110 -143 -231 -212 -372 -212 -106 -1
-162 16 -293 85 -93 49 -124 72 -141 105 -16 31 -9 36 47 39 75 4 85 6 134 38
57 36 65 50 29 53 -98 8 -128 82 -90 227 6 22 13 47 15 55 2 8 8 33 14 55 9
39 14 66 29 185 12 100 1 264 -24 361 -8 30 -15 57 -15 60 0 3 30 0 68 -8 103
-21 316 -24 398 -6 146 32 149 33 204 3z m-2073 -3 c3 -3 1 -18 -4 -34 -8 -24
-15 -28 -54 -31 -24 -2 -59 -1 -77 3 -32 6 -72 36 -72 53 0 5 30 10 67 11 37
1 69 3 70 5 4 4 64 -2 70 -7z m253 -1267 c37 -6 43 -19 27 -56 -9 -21 -82 -74
-102 -74 -6 0 -30 35 -53 78 -37 71 -40 80 -26 94 14 14 21 13 67 -10 28 -14
67 -28 87 -32z m1034 2 c-7 -40 -28 -87 -51 -114 -14 -15 -18 -16 -43 -3 -35
18 -70 61 -70 86 0 12 10 21 28 25 44 9 111 35 118 45 12 20 23 -4 18 -39z
m681 -29 c14 -74 65 -152 130 -198 63 -45 67 -53 60 -108 -12 -89 -62 -189
-132 -265 -33 -37 -37 -35 -48 18 -18 86 -79 176 -154 226 -56 37 -221 103
-416 165 -55 18 -94 34 -87 37 14 4 56 83 66 125 6 26 8 27 34 13 62 -31 184
-60 242 -58 85 4 144 17 210 47 41 18 78 33 81 34 4 1 10 -16 14 -36z m-1919
-86 l23 -48 -22 -8 c-12 -4 -71 -25 -132 -45 -271 -93 -343 -131 -420 -221
l-51 -61 -29 61 c-39 83 -75 182 -75 205 0 11 18 47 40 82 23 34 43 72 46 85
6 23 20 31 26 14 2 -5 34 -30 71 -55 79 -53 162 -81 210 -71 49 11 187 82 232
120 39 33 40 33 49 12 5 -12 19 -44 32 -70z"/>
<path d="M1979 2196 c-67 -46 -117 -137 -122 -225 l-2 -36 200 -3 200 -3 -45
48 c-25 26 -50 52 -56 58 -18 17 -79 108 -99 148 -11 20 -24 37 -30 37 -6 0
-26 -11 -46 -24z"/>
<path d="M3943 2203 c-14 -39 -98 -156 -149 -209 -30 -31 -54 -57 -54 -58 0
-1 87 -1 192 -1 219 0 211 -3 187 84 -23 88 -71 155 -131 187 -34 18 -37 18
-45 -3z"/>
<path d="M5 1882 c-1 -1 53 -115 121 -253 68 -137 124 -254 124 -259 0 -15
-54 -124 -65 -132 -5 -4 -7 -8 -3 -8 3 0 -36 -83 -88 -185 -51 -102 -92 -186
-91 -186 1 -1 1340 -2 2975 -3 2243 -1 2972 2 2972 11 0 6 -55 122 -123 258
l-122 246 127 255 c70 140 126 255 125 255 -4 3 -5949 4 -5952 1z m895 -366
c29 -88 72 -222 96 -296 24 -75 44 -141 44 -148 0 -8 -23 -12 -79 -12 l-78 0
-9 43 -9 42 -107 3 c-115 3 -114 3 -124 -57 -2 -7 -7 -18 -12 -23 -9 -9 -140
-13 -149 -4 -5 4 49 183 92 311 8 22 33 99 55 172 l41 132 67 3 c127 6 114 18
172 -166z m355 -84 c0 -133 2 -243 5 -243 3 -1 66 -2 140 -3 74 -1 140 -4 146
-8 11 -7 12 -103 1 -114 -3 -4 -64 -6 -134 -6 -70 1 -167 2 -215 2 l-88 0 0
308 c0 170 2 311 4 313 2 2 35 2 73 -1 l68 -5 0 -243z m875 236 c81 -34 123
-86 132 -163 l3 -30 -73 -3 -72 -3 -6 29 c-8 41 -67 73 -111 60 -55 -15 -67
-44 -68 -177 -1 -122 6 -155 39 -183 52 -44 151 -3 144 60 -3 24 -7 27 -46 28
-24 1 -46 5 -50 8 -7 8 -10 105 -3 108 24 6 237 4 241 -3 3 -5 5 -46 4 -91 -3
-125 -35 -187 -119 -231 -54 -28 -184 -30 -234 -3 -60 32 -102 84 -115 141
-11 51 -10 278 2 320 11 38 46 85 84 114 55 41 173 50 248 19z m362 -113 l3
-119 78 -1 c46 -1 81 3 85 9 4 6 7 59 7 118 1 59 4 110 8 114 7 7 128 7 135
-1 6 -6 9 -571 4 -597 -4 -15 -16 -18 -72 -18 -80 0 -76 -8 -75 143 l1 107
-88 0 -88 0 0 -120 c0 -92 -3 -121 -14 -127 -8 -4 -41 -7 -74 -5 l-59 4 1 306
1 307 65 5 c36 3 68 3 72 0 4 -3 9 -59 10 -125z m836 -110 c120 -373 121 -379
106 -385 -7 -3 -42 -4 -78 -2 l-64 4 -13 44 -13 44 -107 0 -107 0 -11 -44
c-11 -44 -11 -44 -58 -48 -59 -4 -108 4 -108 17 1 9 44 145 149 470 48 148 43
144 165 135 l65 -5 74 -230z m348 64 c30 -121 43 -157 47 -139 11 41 46 194
51 225 15 81 17 85 44 86 33 1 116 -2 119 -5 1 -1 4 -15 7 -31 2 -17 5 -30 6
-30 1 0 3 -8 5 -19 17 -88 60 -244 66 -234 3 7 10 31 14 53 5 22 9 45 11 52 1
6 12 57 25 112 l24 101 35 1 c47 1 104 -2 111 -7 4 -2 -2 -34 -12 -71 -11 -38
-21 -77 -23 -88 -2 -11 -21 -85 -41 -165 -20 -80 -39 -154 -41 -165 -2 -11
-10 -42 -17 -70 l-13 -50 -64 -5 c-35 -3 -69 -1 -76 5 -11 8 -28 75 -79 305
-2 8 -4 22 -5 30 -2 33 -18 -17 -40 -130 -12 -63 -24 -126 -27 -140 -3 -14 -6
-32 -8 -40 -2 -8 -4 -18 -4 -22 -1 -5 -32 -8 -71 -8 l-69 0 -19 68 c-31 108
-74 265 -77 282 -2 8 -4 15 -5 15 -1 0 -3 7 -5 15 -5 21 -55 202 -61 222 -4
14 4 17 53 20 98 5 93 11 139 -173z m895 164 c4 -4 39 -107 78 -228 38 -121
76 -240 84 -265 9 -25 20 -62 25 -82 12 -44 10 -45 -83 -40 l-63 4 -12 44 -13
45 -105 -3 -105 -3 -15 -42 -14 -43 -73 0 c-41 0 -76 3 -78 8 -2 4 15 66 39
137 23 72 66 204 94 295 29 91 56 170 60 175 10 12 169 10 181 -2z m410 -26
c0 -18 1 -129 2 -247 l2 -215 142 0 c78 0 144 -3 147 -6 7 -7 11 -108 4 -114
-7 -7 -425 -8 -436 -1 -5 3 -8 141 -8 308 l1 302 23 6 c13 3 45 3 72 2 49 -4
50 -5 51 -35z m509 23 c0 -5 0 -102 0 -215 0 -113 0 -247 0 -299 l0 -94 -37
-3 c-21 -2 -54 -2 -73 1 l-35 5 -1 300 c0 165 1 303 3 308 6 11 143 9 143 -3z"/>
<path d="M721 1393 c-17 -59 -31 -113 -31 -118 0 -6 29 -11 66 -11 l66 -2 -5
27 c-6 31 -9 43 -36 135 -11 38 -22 70 -24 73 -2 2 -18 -45 -36 -104z"/>
<path d="M3130 1413 c-34 -120 -38 -143 -31 -147 3 -2 33 -3 66 -2 45 2 60 6
58 17 -3 32 -58 209 -64 209 -4 0 -17 -35 -29 -77z"/>
<path d="M4461 1443 c-8 -27 -15 -52 -16 -58 -2 -5 -10 -34 -18 -62 -9 -29
-13 -54 -9 -54 4 -1 35 -2 70 -4 54 -2 63 1 59 14 -28 103 -62 211 -67 211 -3
0 -12 -21 -19 -47z"/>
<path d="M629 759 c-12 -7 -155 -447 -147 -454 5 -5 30 -7 65 -6 28 1 33 5 38
35 7 32 9 34 53 38 26 1 66 2 89 0 39 -3 43 -5 49 -38 3 -19 10 -34 15 -35 12
-1 54 -1 75 0 12 1 14 8 9 34 -4 17 -12 38 -17 45 -6 6 -8 12 -5 12 3 0 -1 16
-9 35 -8 19 -14 37 -14 40 0 3 -20 70 -45 149 l-46 144 -51 4 c-27 1 -54 0
-59 -3z m80 -198 c35 -120 36 -116 -31 -116 -32 -1 -58 2 -58 6 0 3 11 42 25
85 14 43 25 84 25 91 0 7 4 13 8 13 5 0 19 -35 31 -79z"/>
<path d="M1438 762 l-68 -3 -1 -37 c-2 -127 2 -415 5 -421 3 -4 23 -5 45 -3
l41 4 1 72 c1 39 1 78 0 86 -1 13 10 16 53 17 30 0 70 3 89 7 59 11 107 71
107 133 0 41 -37 108 -68 123 -34 17 -118 26 -204 22z m134 -89 c49 -8 55 -88
8 -113 -11 -6 -42 -10 -69 -9 l-49 2 -1 64 -1 64 43 -2 c23 0 54 -3 69 -6z"/>
<path d="M1881 760 c-43 -10 -81 -39 -105 -79 -15 -26 -19 -54 -20 -138 -1
-119 9 -161 50 -204 56 -58 182 -64 240 -11 48 43 57 71 58 184 3 145 -17 198
-84 233 -34 17 -98 24 -139 15z m89 -84 c30 -12 39 -45 41 -145 2 -111 -11
-145 -56 -157 -35 -9 -78 9 -92 37 -16 30 -17 199 -2 233 18 39 60 51 109 32z"/>
<path d="M2731 755 c-9 -12 -9 -441 0 -450 8 -7 295 -9 307 -1 8 4 8 27 3 69
-1 4 -29 7 -63 6 -35 -1 -86 -1 -114 0 l-50 1 2 50 c1 28 4 53 6 56 3 2 36 5
74 7 l69 2 3 37 3 37 -77 3 -78 3 -1 42 c-1 24 2 47 5 53 3 5 55 11 115 12
l109 3 1 27 c1 15 -1 32 -5 38 -9 15 -298 19 -309 5z"/>
<path d="M3148 762 l-38 -3 0 -230 0 -229 23 -1 c28 -2 61 2 66 7 2 2 5 43 5
91 l1 88 33 3 c30 3 34 0 53 -45 57 -136 62 -143 88 -144 30 -1 65 2 69 6 2 2
-17 45 -41 96 l-45 94 28 16 c70 43 74 178 5 223 -37 24 -144 36 -247 28z
m191 -104 c21 -22 20 -52 -1 -77 -12 -14 -29 -18 -74 -17 l-59 1 -1 50 c0 28
1 53 3 58 3 4 29 7 60 6 39 -2 60 -8 72 -21z"/>
<path d="M3741 758 c-50 -14 -77 -35 -96 -75 -34 -70 9 -144 103 -178 113 -41
138 -60 127 -95 -8 -26 -47 -42 -87 -35 -42 8 -48 12 -63 49 -12 29 -16 31
-54 28 -36 -4 -41 -7 -41 -29 0 -105 157 -167 272 -105 51 27 68 57 68 120 0
48 -45 88 -144 126 -92 36 -116 62 -89 95 36 44 107 29 136 -29 10 -19 21 -25
50 -25 45 -2 54 18 34 68 -30 69 -128 108 -216 85z"/>
<path d="M4466 762 c-10 -2 -16 -14 -17 -30 0 -15 0 -117 -1 -227 l0 -200 28
-5 c60 -12 64 -6 64 89 l0 86 71 2 c85 3 134 25 159 71 23 42 19 115 -7 151
-37 49 -72 61 -180 64 -55 1 -108 1 -117 -1z m209 -102 c24 -27 22 -70 -5 -92
-16 -13 -36 -17 -73 -15 l-52 2 -2 61 -2 62 58 1 c46 0 62 -4 76 -19z"/>
<path d="M4874 760 l-29 -5 -1 -220 c-1 -121 2 -225 7 -231 5 -6 24 -8 46 -5
l38 6 0 85 0 85 72 2 c43 1 85 8 103 18 92 48 92 199 -1 247 -35 17 -175 28
-235 18z m149 -83 c59 -7 85 -57 52 -101 -10 -13 -31 -20 -74 -23 -34 -3 -61
-1 -62 3 -8 63 -4 116 9 123 9 5 21 7 26 6 6 -2 28 -6 49 -8z"/>
<path d="M5869 762 c-36 -3 -38 -6 -79 -95 l-43 -92 -43 93 -44 92 -49 0 -50
0 12 -27 c7 -16 38 -80 70 -144 54 -110 57 -120 57 -192 0 -41 2 -81 5 -89 7
-17 85 -12 85 6 6 141 9 175 19 196 6 14 36 72 66 130 30 58 54 108 55 111 0
11 -22 14 -61 11z"/>
<path d="M37 753 c-4 -3 -7 -107 -7 -230 0 -205 1 -223 18 -224 9 0 29 -2 45
-3 31 -2 29 -13 32 149 1 66 3 127 4 135 0 8 16 -10 34 -40 28 -46 38 -55 62
-55 25 0 34 8 59 53 17 28 33 52 36 52 3 0 6 -64 6 -142 l0 -142 32 -7 c61
-12 62 -8 59 236 l-2 220 -45 3 c-44 2 -45 2 -75 -49 -16 -28 -40 -65 -52 -81
l-22 -30 -27 44 c-15 23 -38 60 -51 81 -20 32 -28 37 -61 37 -21 0 -42 -3 -45
-7z"/>
<path d="M941 531 c0 -211 1 -231 17 -232 9 0 29 -2 45 -3 21 -1 27 3 28 19 0
11 1 76 1 145 0 145 -8 148 100 -36 71 -120 73 -122 111 -126 21 -2 42 1 46 7
6 8 8 388 2 443 -1 9 -14 12 -43 10 l-43 -3 -1 -130 c-1 -71 -2 -134 -3 -139
-1 -5 -39 53 -85 130 l-84 139 -45 3 -45 3 -1 -230z"/>
<path d="M2130 751 c0 -4 23 -92 51 -197 28 -104 53 -200 56 -214 6 -32 11
-37 50 -43 20 -3 36 0 43 9 11 13 59 205 62 252 3 30 15 28 22 -5 4 -16 9 -38
11 -50 3 -13 7 -31 9 -40 2 -10 12 -51 21 -90 18 -77 18 -78 84 -75 29 2 29 2
35 33 2 13 5 24 6 24 1 0 3 7 5 15 1 8 15 65 30 125 14 61 28 119 31 130 2 11
6 32 10 47 3 15 5 29 4 30 -1 2 3 15 9 31 l11 27 -48 0 -48 0 -24 -102 c-13
-57 -26 -114 -28 -128 -6 -42 -17 -42 -25 0 -3 14 -15 63 -27 110 -12 47 -23
92 -25 100 -1 11 -15 15 -50 15 l-49 0 -18 -70 c-10 -38 -20 -83 -23 -100 -2
-16 -8 -46 -13 -65 l-8 -35 -11 35 c-7 19 -22 81 -35 137 l-23 102 -47 -1
c-27 0 -48 -3 -48 -7z"/>
<path d="M4037 753 c-3 -4 -4 -84 -3 -178 1 -151 3 -174 21 -204 60 -100 236
-102 297 -3 21 34 22 48 23 211 l0 176 -45 0 -45 0 -1 -162 c0 -134 -3 -166
-18 -187 -9 -14 -22 -26 -29 -27 -6 0 -22 -2 -34 -5 -13 -2 -33 5 -49 20 l-28
23 0 169 -1 169 -42 3 c-22 2 -43 -1 -46 -5z"/>
<path d="M5239 718 c-2 -153 1 -411 4 -415 3 -2 63 -4 133 -4 200 -1 184 -4
184 35 0 41 -8 44 -102 44 -38 0 -81 1 -97 1 l-30 1 0 138 c0 75 0 161 0 190
l-1 52 -45 0 -45 0 -1 -42z"/>
</g>
</svg>
